<svg width="25" height="24" viewBox="0 0 25 24" fill="none" xmlns="http://www.w3.org/2000/svg">
<path fill-rule="evenodd" clip-rule="evenodd" d="M7.65689 1.066C8.82989 1.012 9.20389 1 12.1919 1C15.1799 1 15.5539 1.013 16.7259 1.066C17.8979 1.119 18.6979 1.306 19.3979 1.577C20.1309 1.854 20.7959 2.287 21.3459 2.847C21.9059 3.396 22.3379 4.06 22.6139 4.794C22.8859 5.494 23.0719 6.294 23.1259 7.464C23.1799 8.639 23.1919 9.013 23.1919 12C23.1919 14.988 23.1789 15.362 23.1259 16.535C23.0729 17.705 22.8859 18.505 22.6139 19.205C22.3379 19.9391 21.9052 20.6042 21.3459 21.154C20.7959 21.714 20.1309 22.146 19.3979 22.422C18.6979 22.694 17.8979 22.88 16.7279 22.934C15.5539 22.988 15.1799 23 12.1919 23C9.20389 23 8.82989 22.987 7.65689 22.934C6.48689 22.881 5.68689 22.694 4.98689 22.422C4.25282 22.146 3.58771 21.7133 3.03789 21.154C2.47827 20.6047 2.04521 19.9399 1.76889 19.206C1.49789 18.506 1.31189 17.706 1.25789 16.536C1.20389 15.361 1.19189 14.987 1.19189 12C1.19189 9.012 1.20489 8.638 1.25789 7.466C1.31089 6.294 1.49789 5.494 1.76889 4.794C2.04562 4.06008 2.47901 3.39531 3.03889 2.846C3.58793 2.2865 4.25237 1.85344 4.98589 1.577C5.68589 1.306 6.48589 1.12 7.65589 1.066H7.65689ZM16.6369 3.046C15.4769 2.993 15.1289 2.982 12.1919 2.982C9.25489 2.982 8.90689 2.993 7.74689 3.046C6.67389 3.095 6.09189 3.274 5.70389 3.425C5.19089 3.625 4.82389 3.862 4.43889 4.247C4.07394 4.60205 3.79307 5.03428 3.61689 5.512C3.46589 5.9 3.28689 6.482 3.23789 7.555C3.18489 8.715 3.17389 9.063 3.17389 12C3.17389 14.937 3.18489 15.285 3.23789 16.445C3.28689 17.518 3.46589 18.1 3.61689 18.488C3.79289 18.965 4.07389 19.398 4.43889 19.753C4.79389 20.118 5.22689 20.399 5.70389 20.575C6.09189 20.726 6.67389 20.905 7.74689 20.954C8.90689 21.007 9.25389 21.018 12.1919 21.018C15.1299 21.018 15.4769 21.007 16.6369 20.954C17.7099 20.905 18.2919 20.726 18.6799 20.575C19.1929 20.375 19.5599 20.138 19.9449 19.753C20.3099 19.398 20.5909 18.965 20.7669 18.488C20.9179 18.1 21.0969 17.518 21.1459 16.445C21.1989 15.285 21.2099 14.937 21.2099 12C21.2099 9.063 21.1989 8.715 21.1459 7.555C21.0969 6.482 20.9179 5.9 20.7669 5.512C20.5669 4.999 20.3299 4.632 19.9449 4.247C19.5898 3.88207 19.1576 3.60121 18.6799 3.425C18.2919 3.274 17.7099 3.095 16.6369 3.046ZM10.7869 15.391C11.5716 15.7176 12.4453 15.7617 13.2588 15.5157C14.0724 15.2697 14.7753 14.7489 15.2475 14.0422C15.7197 13.3356 15.9319 12.4869 15.8479 11.6411C15.7639 10.7953 15.3889 10.005 14.7869 9.405C14.4031 9.02148 13.9391 8.72781 13.4282 8.54515C12.9173 8.36248 12.3723 8.29536 11.8324 8.34862C11.2925 8.40187 10.771 8.57418 10.3057 8.85313C9.84035 9.13208 9.44264 9.51074 9.1412 9.96185C8.83976 10.413 8.64208 10.9253 8.56241 11.462C8.48274 11.9986 8.52305 12.5463 8.68043 13.0655C8.83782 13.5847 9.10838 14.0626 9.47262 14.4647C9.83685 14.8668 10.2857 15.1832 10.7869 15.391ZM8.19389 8.002C8.71892 7.47697 9.34221 7.0605 10.0282 6.77636C10.7142 6.49222 11.4494 6.34597 12.1919 6.34597C12.9344 6.34597 13.6696 6.49222 14.3556 6.77636C15.0416 7.0605 15.6649 7.47697 16.1899 8.002C16.7149 8.52702 17.1314 9.15032 17.4155 9.8363C17.6997 10.5223 17.8459 11.2575 17.8459 12C17.8459 12.7425 17.6997 13.4777 17.4155 14.1637C17.1314 14.8497 16.7149 15.473 16.1899 15.998C15.1296 17.0583 13.6914 17.654 12.1919 17.654C10.6924 17.654 9.25423 17.0583 8.19389 15.998C7.13356 14.9377 6.53787 13.4995 6.53787 12C6.53787 10.5005 7.13356 9.06234 8.19389 8.002ZM19.0999 7.188C19.23 7.06527 19.3342 6.91768 19.4062 6.75397C19.4782 6.59027 19.5167 6.41377 19.5193 6.23493C19.5219 6.05609 19.4886 5.87855 19.4214 5.71281C19.3541 5.54707 19.2543 5.39651 19.1279 5.27004C19.0014 5.14357 18.8508 5.04376 18.6851 4.97652C18.5193 4.90928 18.3418 4.87598 18.163 4.87858C17.9841 4.88119 17.8076 4.91965 17.6439 4.9917C17.4802 5.06374 17.3326 5.1679 17.2099 5.298C16.9712 5.55103 16.8405 5.88712 16.8456 6.23493C16.8507 6.58274 16.9911 6.91488 17.2371 7.16084C17.483 7.40681 17.8152 7.54723 18.163 7.5523C18.5108 7.55737 18.8469 7.42669 19.0999 7.188Z" fill="rgba(0, 0, 0, 0.7)"/>
</svg>
