<svg width="25" height="24" viewBox="0 0 25 24" fill="none" xmlns="http://www.w3.org/2000/svg">
<g clip-path="url(#clip0_103:38)">
<path d="M23.1919 3.00999C23.1919 3.00999 21.1739 4.20199 20.0519 4.53999C19.4496 3.84751 18.6492 
3.35669 17.7589 3.13392C16.8686 2.91116 15.9314 2.96719 15.074 3.29445C14.2166 3.62171 13.4803 4.2044 
12.9649 4.96371C12.4494 5.72303 12.1796 6.62233 12.1919 7.53999V8.53999C10.4345 8.58556 8.69317 8.19581 
7.1229 7.40544C5.55264 6.61507 4.20221 5.44863 3.19189 4.00999C3.19189 4.00999 -0.808105 13.01 8.19189 
17.01C6.13242 18.408 3.67905 19.1089 1.19189 19.01C10.1919 24.01 21.1919 19.01 21.1919 7.50999C21.1919 
7.23199 21.1639 6.95399 21.1119 6.67999C22.1319 5.67399 23.1919 3.00999 23.1919 3.00999Z" 
 stroke="rgba(0, 0, 0, 0.7)" stroke-width="1.5" stroke-linecap="round" stroke-linejoin="round"/>
</g>
<defs>
<clipPath id="clip0_103:38">
<rect width="24" height="24" fill="white" transform="translate(0.191895)"/>
</clipPath>
</defs>
</svg>
